# xmcd CD database file
#
# Track frame offsets:
#	150
#	14168
#	27592
#	40059
#	53343
#	66436
#	79935
#	94566
#	108491
#	121106
#	133295
#	147150
#	157791
#	169426
#	180624
#	194645
#	208745
#	221799
#
# Disc length: 3107 seconds
#
# Revision: 1
# Processed by: cddbd v1.5.1PL0 Copyright (c) Steve Scherf et al.
# Submitted via: CDex 1.51
#
DISCID=0c0c2112
DTITLE=Charlie Parker - Constellation CD2
DYEAR=2004
DGENRE=Jazz
TTITLE0=Out Of Nowhere
TTITLE1=Scrapple From The Apple
TTITLE2=Bongo Bop
TTITLE3=Drifting On A Reed
TTITLE4=Ah-Leu-Cha
TTITLE5=Dexterity
TTITLE6=My Old Flame
TTITLE7=Cheers
TTITLE8=Don't Blame Me
TTITLE9=Un Poquito De Tu Amor
TTITLE10=Okiedoke
TTITLE11=Slippin' At Bells
TTITLE12=Bird Gets The Worm
TTITLE13=Barbados
TTITLE14=Relaxin' At Camarillo
TTITLE15=Why Do I Love You?
TTITLE16=Quasimodo
TTITLE17=Donna Lee
EXTD=YEAR: 2004
EXTT0=
EXTT1=
EXTT2=
EXTT3=
EXTT4=
EXTT5=
EXTT6=
EXTT7=
EXTT8=
EXTT9=
EXTT10=
EXTT11=
EXTT12=
EXTT13=
EXTT14=
EXTT15=
EXTT16=
EXTT17=
PLAYORDER=
